#N canvas 650 206 450 300 10;
#X declare -lib mrpeach;
#X obj 78 106 import mrpeach;
#X msg 78 200 connect 127.0.0.1 3000;
#X msg 88 227 disconnect;
#X obj 78 254 udpsend;
#X obj 78 133 loadbang;
#X msg 88 160 \; pd dsp 1;
#X obj 290 19 udpreceive 3000;
#X obj 290 46 unpackOSC;
#X obj 20 47 packOSC;
#X obj 290 73 routeOSC /playnote;
#X msg 20 20 send /playnote 66;
#X obj 290 198 noteout 1;
#X obj 247 121 print;
#X obj 290 144 makenote 100 125;
#X connect 1 0 3 0;
#X connect 2 0 3 0;
#X connect 4 0 1 0;
#X connect 4 0 5 0;
#X connect 6 0 7 0;
#X connect 7 0 9 0;
#X connect 8 0 3 0;
#X connect 9 0 12 0;
#X connect 9 0 13 0;
#X connect 10 0 8 0;
#X connect 13 0 11 0;
#X connect 13 1 11 1;
